<?xml version="1.0" standalone="no"?>
<!DOCTYPE svg PUBLIC "-//W3C//DTD SVG 20010904//EN"
 "http://www.w3.org/TR/2001/REC-SVG-20010904/DTD/svg10.dtd">
<svg version="1.0" xmlns="http://www.w3.org/2000/svg"
 width="260.000000pt" height="260.000000pt" viewBox="0 0 260.000000 260.000000"
 preserveAspectRatio="xMidYMid meet">
<metadata>
Created by potrace 1.14, written by Peter Selinger 2001-2017
</metadata>
<g transform="translate(0.000000,260.000000) scale(0.100000,-0.100000)"
fill="#000000" stroke="none">
<path d="M0 1300 l0 -1300 1300 0 1300 0 0 1300 0 1300 -1300 0 -1300 0 0
-1300z m714 663 c2 -10 24 -152 47 -315 24 -164 46 -292 50 -285 3 6 24 148
45 314 l39 303 243 0 242 0 0 -710 0 -710 -165 0 -165 0 -1 458 c-1 251 -4
448 -6 437 -3 -11 -31 -216 -62 -455 l-57 -435 -115 -3 -116 -3 -64 453 -64
453 -3 -453 -2 -452 -165 0 -165 0 0 710 0 710 239 0 c220 0 240 -1 245 -17z
m1385 6 c187 -30 265 -126 278 -338 11 -178 -22 -251 -127 -288 l-49 -18 46
-18 c102 -40 136 -87 154 -214 13 -89 6 -298 -12 -369 -15 -59 -78 -127 -134
-144 -27 -9 -146 -14 -377 -17 l-338 -5 0 711 0 711 248 0 c136 0 276 -5 311
-11z"/>
<path d="M1915 1728 c-3 -8 -4 -79 -3 -158 l3 -145 43 1 c23 0 48 6 55 13 8 8
13 55 15 129 3 102 1 121 -15 140 -22 28 -90 42 -98 20z"/>
<path d="M1914 1187 c-2 -7 -3 -96 -2 -197 l3 -185 40 2 c69 4 75 21 75 197 0
83 -4 157 -8 164 -8 12 -64 32 -90 32 -7 0 -15 -6 -18 -13z"/>
</g>
</svg>
